<?xml version="1.0" encoding="UTF-8" ?>
<svg height="144" width="144" xmlns="http://www.w3.org/2000/svg" version="1.1">
<line x1="12.0" y1="12.0" x2="12.0" y2="20.0" style="stroke:rgb(255,0,0);stroke-width:2" />
<line x1="12.0" y1="20.0" x2="20.0" y2="20.0" style="stroke:rgb(255,0,0);stroke-width:2" />
<line x1="20.0" y1="20.0" x2="20.0" y2="12.0" style="stroke:rgb(255,0,0);stroke-width:2" />
<line x1="20.0" y1="12.0" x2="28.0" y2="12.0" style="stroke:rgb(255,0,0);stroke-width:2" />
<line x1="28.0" y1="12.0" x2="36.0" y2="12.0" style="stroke:rgb(255,0,0);stroke-width:2" />
<line x1="36.0" y1="12.0" x2="36.0" y2="20.0" style="stroke:rgb(255,0,0);stroke-width:2" />
<line x1="36.0" y1="20.0" x2="28.0" y2="20.0" style="stroke:rgb(255,0,0);stroke-width:2" />
<line x1="28.0" y1="20.0" x2="28.0" y2="28.0" style="stroke:rgb(255,0,0);stroke-width:2" />
<line x1="28.0" y1="28.0" x2="36.0" y2="28.0" style="stroke:rgb(255,0,0);stroke-width:2" />
<line x1="36.0" y1="28.0" x2="36.0" y2="36.0" style="stroke:rgb(255,0,0);stroke-width:2" />
<line x1="36.0" y1="36.0" x2="28.0" y2="36.0" style="stroke:rgb(255,0,0);stroke-width:2" />
<line x1="28.0" y1="36.0" x2="20.0" y2="36.0" style="stroke:rgb(255,0,0);stroke-width:2" />
<line x1="20.0" y1="36.0" x2="20.0" y2="28.0" style="stroke:rgb(255,0,0);stroke-width:2" />
<line x1="20.0" y1="28.0" x2="12.0" y2="28.0" style="stroke:rgb(255,0,0);stroke-width:2" />
<line x1="12.0" y1="28.0" x2="12.0" y2="36.0" style="stroke:rgb(255,0,0);stroke-width:2" />
<line x1="12.0" y1="36.0" x2="12.0" y2="44.0" style="stroke:rgb(255,0,0);stroke-width:2" />
<line x1="12.0" y1="44.0" x2="20.0" y2="44.0" style="stroke:rgb(255,0,0);stroke-width:2" />
<line x1="20.0" y1="44.0" x2="20.0" y2="52.0" style="stroke:rgb(255,0,0);stroke-width:2" />
<line x1="20.0" y1="52.0" x2="12.0" y2="52.0" style="stroke:rgb(255,0,0);stroke-width:2" />
<line x1="12.0" y1="52.0" x2="12.0" y2="60.0" style="stroke:rgb(255,0,0);stroke-width:2" />
<line x1="12.0" y1="60.0" x2="12.0" y2="68.0" style="stroke:rgb(255,0,0);stroke-width:2" />
<line x1="12.0" y1="68.0" x2="20.0" y2="68.0" style="stroke:rgb(255,0,0);stroke-width:2" />
<line x1="20.0" y1="68.0" x2="20.0" y2="60.0" style="stroke:rgb(255,0,0);stroke-width:2" />
<line x1="20.0" y1="60.0" x2="28.0" y2="60.0" style="stroke:rgb(255,0,0);stroke-width:2" />
<line x1="28.0" y1="60.0" x2="28.0" y2="68.0" style="stroke:rgb(255,0,0);stroke-width:2" />
<line x1="28.0" y1="68.0" x2="36.0" y2="68.0" style="stroke:rgb(255,0,0);stroke-width:2" />
<line x1="36.0" y1="68.0" x2="36.0" y2="60.0" style="stroke:rgb(255,0,0);stroke-width:2" />
<line x1="36.0" y1="60.0" x2="36.0" y2="52.0" style="stroke:rgb(255,0,0);stroke-width:2" />
<line x1="36.0" y1="52.0" x2="28.0" y2="52.0" style="stroke:rgb(255,0,0);stroke-width:2" />
<line x1="28.0" y1="52.0" x2="28.0" y2="44.0" style="stroke:rgb(255,0,0);stroke-width:2" />
<line x1="28.0" y1="44.0" x2="36.0" y2="44.0" style="stroke:rgb(255,0,0);stroke-width:2" />
<line x1="36.0" y1="44.0" x2="44.0" y2="44.0" style="stroke:rgb(255,0,0);stroke-width:2" />
<line x1="44.0" y1="44.0" x2="52.0" y2="44.0" style="stroke:rgb(255,0,0);stroke-width:2" />
<line x1="52.0" y1="44.0" x2="52.0" y2="52.0" style="stroke:rgb(255,0,0);stroke-width:2" />
<line x1="52.0" y1="52.0" x2="44.0" y2="52.0" style="stroke:rgb(255,0,0);stroke-width:2" />
<line x1="44.0" y1="52.0" x2="44.0" y2="60.0" style="stroke:rgb(255,0,0);stroke-width:2" />
<line x1="44.0" y1="60.0" x2="44.0" y2="68.0" style="stroke:rgb(255,0,0);stroke-width:2" />
<line x1="44.0" y1="68.0" x2="52.0" y2="68.0" style="stroke:rgb(255,0,0);stroke-width:2" />
<line x1="52.0" y1="68.0" x2="52.0" y2="60.0" style="stroke:rgb(255,0,0);stroke-width:2" />
<line x1="52.0" y1="60.0" x2="60.0" y2="60.0" style="stroke:rgb(255,0,0);stroke-width:2" />
<line x1="60.0" y1="60.0" x2="60.0" y2="68.0" style="stroke:rgb(255,0,0);stroke-width:2" />
<line x1="60.0" y1="68.0" x2="68.0" y2="68.0" style="stroke:rgb(255,0,0);stroke-width:2" />
<line x1="68.0" y1="68.0" x2="68.0" y2="60.0" style="stroke:rgb(255,0,0);stroke-width:2" />
<line x1="68.0" y1="60.0" x2="68.0" y2="52.0" style="stroke:rgb(255,0,0);stroke-width:2" />
<line x1="68.0" y1="52.0" x2="60.0" y2="52.0" style="stroke:rgb(255,0,0);stroke-width:2" />
<line x1="60.0" y1="52.0" x2="60.0" y2="44.0" style="stroke:rgb(255,0,0);stroke-width:2" />
<line x1="60.0" y1="44.0" x2="68.0" y2="44.0" style="stroke:rgb(255,0,0);stroke-width:2" />
<line x1="68.0" y1="44.0" x2="68.0" y2="36.0" style="stroke:rgb(255,0,0);stroke-width:2" />
<line x1="68.0" y1="36.0" x2="68.0" y2="28.0" style="stroke:rgb(255,0,0);stroke-width:2" />
<line x1="68.0" y1="28.0" x2="60.0" y2="28.0" style="stroke:rgb(255,0,0);stroke-width:2" />
<line x1="60.0" y1="28.0" x2="60.0" y2="36.0" style="stroke:rgb(255,0,0);stroke-width:2" />
<line x1="60.0" y1="36.0" x2="52.0" y2="36.0" style="stroke:rgb(255,0,0);stroke-width:2" />
<line x1="52.0" y1="36.0" x2="44.0" y2="36.0" style="stroke:rgb(255,0,0);stroke-width:2" />
<line x1="44.0" y1="36.0" x2="44.0" y2="28.0" style="stroke:rgb(255,0,0);stroke-width:2" />
<line x1="44.0" y1="28.0" x2="52.0" y2="28.0" style="stroke:rgb(255,0,0);stroke-width:2" />
<line x1="52.0" y1="28.0" x2="52.0" y2="20.0" style="stroke:rgb(255,0,0);stroke-width:2" />
<line x1="52.0" y1="20.0" x2="44.0" y2="20.0" style="stroke:rgb(255,0,0);stroke-width:2" />
<line x1="44.0" y1="20.0" x2="44.0" y2="12.0" style="stroke:rgb(255,0,0);stroke-width:2" />
<line x1="44.0" y1="12.0" x2="52.0" y2="12.0" style="stroke:rgb(255,0,0);stroke-width:2" />
<line x1="52.0" y1="12.0" x2="60.0" y2="12.0" style="stroke:rgb(255,0,0);stroke-width:2" />
<line x1="60.0" y1="12.0" x2="60.0" y2="20.0" style="stroke:rgb(255,0,0);stroke-width:2" />
<line x1="60.0" y1="20.0" x2="68.0" y2="20.0" style="stroke:rgb(255,0,0);stroke-width:2" />
<line x1="68.0" y1="20.0" x2="68.0" y2="12.0" style="stroke:rgb(255,0,0);stroke-width:2" />
<line x1="68.0" y1="12.0" x2="76.0" y2="12.0" style="stroke:rgb(255,0,0);stroke-width:2" />
<line x1="76.0" y1="12.0" x2="84.0" y2="12.0" style="stroke:rgb(255,0,0);stroke-width:2" />
<line x1="84.0" y1="12.0" x2="84.0" y2="20.0" style="stroke:rgb(255,0,0);stroke-width:2" />
<line x1="84.0" y1="20.0" x2="76.0" y2="20.0" style="stroke:rgb(255,0,0);stroke-width:2" />
<line x1="76.0" y1="20.0" x2="76.0" y2="28.0" style="stroke:rgb(255,0,0);stroke-width:2" />
<line x1="76.0" y1="28.0" x2="76.0" y2="36.0" style="stroke:rgb(255,0,0);stroke-width:2" />
<line x1="76.0" y1="36.0" x2="84.0" y2="36.0" style="stroke:rgb(255,0,0);stroke-width:2" />
<line x1="84.0" y1="36.0" x2="84.0" y2="28.0" style="stroke:rgb(255,0,0);stroke-width:2" />
<line x1="84.0" y1="28.0" x2="92.0" y2="28.0" style="stroke:rgb(255,0,0);stroke-width:2" />
<line x1="92.0" y1="28.0" x2="92.0" y2="36.0" style="stroke:rgb(255,0,0);stroke-width:2" />
<line x1="92.0" y1="36.0" x2="100.0" y2="36.0" style="stroke:rgb(255,0,0);stroke-width:2" />
<line x1="100.0" y1="36.0" x2="100.0" y2="28.0" style="stroke:rgb(255,0,0);stroke-width:2" />
<line x1="100.0" y1="28.0" x2="100.0" y2="20.0" style="stroke:rgb(255,0,0);stroke-width:2" />
<line x1="100.0" y1="20.0" x2="92.0" y2="20.0" style="stroke:rgb(255,0,0);stroke-width:2" />
<line x1="92.0" y1="20.0" x2="92.0" y2="12.0" style="stroke:rgb(255,0,0);stroke-width:2" />
<line x1="92.0" y1="12.0" x2="100.0" y2="12.0" style="stroke:rgb(255,0,0);stroke-width:2" />
<line x1="100.0" y1="12.0" x2="108.0" y2="12.0" style="stroke:rgb(255,0,0);stroke-width:2" />
<line x1="108.0" y1="12.0" x2="108.0" y2="20.0" style="stroke:rgb(255,0,0);stroke-width:2" />
<line x1="108.0" y1="20.0" x2="116.0" y2="20.0" style="stroke:rgb(255,0,0);stroke-width:2" />
<line x1="116.0" y1="20.0" x2="116.0" y2="12.0" style="stroke:rgb(255,0,0);stroke-width:2" />
<line x1="116.0" y1="12.0" x2="124.0" y2="12.0" style="stroke:rgb(255,0,0);stroke-width:2" />
<line x1="124.0" y1="12.0" x2="132.0" y2="12.0" style="stroke:rgb(255,0,0);stroke-width:2" />
<line x1="132.0" y1="12.0" x2="132.0" y2="20.0" style="stroke:rgb(255,0,0);stroke-width:2" />
<line x1="132.0" y1="20.0" x2="124.0" y2="20.0" style="stroke:rgb(255,0,0);stroke-width:2" />
<line x1="124.0" y1="20.0" x2="124.0" y2="28.0" style="stroke:rgb(255,0,0);stroke-width:2" />
<line x1="124.0" y1="28.0" x2="132.0" y2="28.0" style="stroke:rgb(255,0,0);stroke-width:2" />
<line x1="132.0" y1="28.0" x2="132.0" y2="36.0" style="stroke:rgb(255,0,0);stroke-width:2" />
<line x1="132.0" y1="36.0" x2="124.0" y2="36.0" style="stroke:rgb(255,0,0);stroke-width:2" />
<line x1="124.0" y1="36.0" x2="116.0" y2="36.0" style="stroke:rgb(255,0,0);stroke-width:2" />
<line x1="116.0" y1="36.0" x2="116.0" y2="28.0" style="stroke:rgb(255,0,0);stroke-width:2" />
<line x1="116.0" y1="28.0" x2="108.0" y2="28.0" style="stroke:rgb(255,0,0);stroke-width:2" />
<line x1="108.0" y1="28.0" x2="108.0" y2="36.0" style="stroke:rgb(255,0,0);stroke-width:2" />
<line x1="108.0" y1="36.0" x2="108.0" y2="44.0" style="stroke:rgb(255,0,0);stroke-width:2" />
<line x1="108.0" y1="44.0" x2="108.0" y2="52.0" style="stroke:rgb(255,0,0);stroke-width:2" />
<line x1="108.0" y1="52.0" x2="116.0" y2="52.0" style="stroke:rgb(255,0,0);stroke-width:2" />
<line x1="116.0" y1="52.0" x2="116.0" y2="44.0" style="stroke:rgb(255,0,0);stroke-width:2" />
<line x1="116.0" y1="44.0" x2="124.0" y2="44.0" style="stroke:rgb(255,0,0);stroke-width:2" />
<line x1="124.0" y1="44.0" x2="132.0" y2="44.0" style="stroke:rgb(255,0,0);stroke-width:2" />
<line x1="132.0" y1="44.0" x2="132.0" y2="52.0" style="stroke:rgb(255,0,0);stroke-width:2" />
<line x1="132.0" y1="52.0" x2="124.0" y2="52.0" style="stroke:rgb(255,0,0);stroke-width:2" />
<line x1="124.0" y1="52.0" x2="124.0" y2="60.0" style="stroke:rgb(255,0,0);stroke-width:2" />
<line x1="124.0" y1="60.0" x2="132.0" y2="60.0" style="stroke:rgb(255,0,0);stroke-width:2" />
<line x1="132.0" y1="60.0" x2="132.0" y2="68.0" style="stroke:rgb(255,0,0);stroke-width:2" />
<line x1="132.0" y1="68.0" x2="124.0" y2="68.0" style="stroke:rgb(255,0,0);stroke-width:2" />
<line x1="124.0" y1="68.0" x2="116.0" y2="68.0" style="stroke:rgb(255,0,0);stroke-width:2" />
<line x1="116.0" y1="68.0" x2="116.0" y2="60.0" style="stroke:rgb(255,0,0);stroke-width:2" />
<line x1="116.0" y1="60.0" x2="108.0" y2="60.0" style="stroke:rgb(255,0,0);stroke-width:2" />
<line x1="108.0" y1="60.0" x2="108.0" y2="68.0" style="stroke:rgb(255,0,0);stroke-width:2" />
<line x1="108.0" y1="68.0" x2="100.0" y2="68.0" style="stroke:rgb(255,0,0);stroke-width:2" />
<line x1="100.0" y1="68.0" x2="92.0" y2="68.0" style="stroke:rgb(255,0,0);stroke-width:2" />
<line x1="92.0" y1="68.0" x2="92.0" y2="60.0" style="stroke:rgb(255,0,0);stroke-width:2" />
<line x1="92.0" y1="60.0" x2="100.0" y2="60.0" style="stroke:rgb(255,0,0);stroke-width:2" />
<line x1="100.0" y1="60.0" x2="100.0" y2="52.0" style="stroke:rgb(255,0,0);stroke-width:2" />
<line x1="100.0" y1="52.0" x2="100.0" y2="44.0" style="stroke:rgb(255,0,0);stroke-width:2" />
<line x1="100.0" y1="44.0" x2="92.0" y2="44.0" style="stroke:rgb(255,0,0);stroke-width:2" />
<line x1="92.0" y1="44.0" x2="92.0" y2="52.0" style="stroke:rgb(255,0,0);stroke-width:2" />
<line x1="92.0" y1="52.0" x2="84.0" y2="52.0" style="stroke:rgb(255,0,0);stroke-width:2" />
<line x1="84.0" y1="52.0" x2="84.0" y2="44.0" style="stroke:rgb(255,0,0);stroke-width:2" />
<line x1="84.0" y1="44.0" x2="76.0" y2="44.0" style="stroke:rgb(255,0,0);stroke-width:2" />
<line x1="76.0" y1="44.0" x2="76.0" y2="52.0" style="stroke:rgb(255,0,0);stroke-width:2" />
<line x1="76.0" y1="52.0" x2="76.0" y2="60.0" style="stroke:rgb(255,0,0);stroke-width:2" />
<line x1="76.0" y1="60.0" x2="84.0" y2="60.0" style="stroke:rgb(255,0,0);stroke-width:2" />
<line x1="84.0" y1="60.0" x2="84.0" y2="68.0" style="stroke:rgb(255,0,0);stroke-width:2" />
<line x1="84.0" y1="68.0" x2="76.0" y2="68.0" style="stroke:rgb(255,0,0);stroke-width:2" />
<line x1="76.0" y1="68.0" x2="76.0" y2="76.0" style="stroke:rgb(255,0,0);stroke-width:2" />
<line x1="76.0" y1="76.0" x2="84.0" y2="76.0" style="stroke:rgb(255,0,0);stroke-width:2" />
<line x1="84.0" y1="76.0" x2="84.0" y2="84.0" style="stroke:rgb(255,0,0);stroke-width:2" />
<line x1="84.0" y1="84.0" x2="76.0" y2="84.0" style="stroke:rgb(255,0,0);stroke-width:2" />
<line x1="76.0" y1="84.0" x2="76.0" y2="92.0" style="stroke:rgb(255,0,0);stroke-width:2" />
<line x1="76.0" y1="92.0" x2="76.0" y2="100.0" style="stroke:rgb(255,0,0);stroke-width:2" />
<line x1="76.0" y1="100.0" x2="84.0" y2="100.0" style="stroke:rgb(255,0,0);stroke-width:2" />
<line x1="84.0" y1="100.0" x2="84.0" y2="92.0" style="stroke:rgb(255,0,0);stroke-width:2" />
<line x1="84.0" y1="92.0" x2="92.0" y2="92.0" style="stroke:rgb(255,0,0);stroke-width:2" />
<line x1="92.0" y1="92.0" x2="92.0" y2="100.0" style="stroke:rgb(255,0,0);stroke-width:2" />
<line x1="92.0" y1="100.0" x2="100.0" y2="100.0" style="stroke:rgb(255,0,0);stroke-width:2" />
<line x1="100.0" y1="100.0" x2="100.0" y2="92.0" style="stroke:rgb(255,0,0);stroke-width:2" />
<line x1="100.0" y1="92.0" x2="100.0" y2="84.0" style="stroke:rgb(255,0,0);stroke-width:2" />
<line x1="100.0" y1="84.0" x2="92.0" y2="84.0" style="stroke:rgb(255,0,0);stroke-width:2" />
<line x1="92.0" y1="84.0" x2="92.0" y2="76.0" style="stroke:rgb(255,0,0);stroke-width:2" />
<line x1="92.0" y1="76.0" x2="100.0" y2="76.0" style="stroke:rgb(255,0,0);stroke-width:2" />
<line x1="100.0" y1="76.0" x2="108.0" y2="76.0" style="stroke:rgb(255,0,0);stroke-width:2" />
<line x1="108.0" y1="76.0" x2="108.0" y2="84.0" style="stroke:rgb(255,0,0);stroke-width:2" />
<line x1="108.0" y1="84.0" x2="116.0" y2="84.0" style="stroke:rgb(255,0,0);stroke-width:2" />
<line x1="116.0" y1="84.0" x2="116.0" y2="76.0" style="stroke:rgb(255,0,0);stroke-width:2" />
<line x1="116.0" y1="76.0" x2="124.0" y2="76.0" style="stroke:rgb(255,0,0);stroke-width:2" />
<line x1="124.0" y1="76.0" x2="132.0" y2="76.0" style="stroke:rgb(255,0,0);stroke-width:2" />
<line x1="132.0" y1="76.0" x2="132.0" y2="84.0" style="stroke:rgb(255,0,0);stroke-width:2" />
<line x1="132.0" y1="84.0" x2="124.0" y2="84.0" style="stroke:rgb(255,0,0);stroke-width:2" />
<line x1="124.0" y1="84.0" x2="124.0" y2="92.0" style="stroke:rgb(255,0,0);stroke-width:2" />
<line x1="124.0" y1="92.0" x2="132.0" y2="92.0" style="stroke:rgb(255,0,0);stroke-width:2" />
<line x1="132.0" y1="92.0" x2="132.0" y2="100.0" style="stroke:rgb(255,0,0);stroke-width:2" />
<line x1="132.0" y1="100.0" x2="124.0" y2="100.0" style="stroke:rgb(255,0,0);stroke-width:2" />
<line x1="124.0" y1="100.0" x2="116.0" y2="100.0" style="stroke:rgb(255,0,0);stroke-width:2" />
<line x1="116.0" y1="100.0" x2="116.0" y2="92.0" style="stroke:rgb(255,0,0);stroke-width:2" />
<line x1="116.0" y1="92.0" x2="108.0" y2="92.0" style="stroke:rgb(255,0,0);stroke-width:2" />
<line x1="108.0" y1="92.0" x2="108.0" y2="100.0" style="stroke:rgb(255,0,0);stroke-width:2" />
<line x1="108.0" y1="100.0" x2="108.0" y2="108.0" style="stroke:rgb(255,0,0);stroke-width:2" />
<line x1="108.0" y1="108.0" x2="108.0" y2="116.0" style="stroke:rgb(255,0,0);stroke-width:2" />
<line x1="108.0" y1="116.0" x2="116.0" y2="116.0" style="stroke:rgb(255,0,0);stroke-width:2" />
<line x1="116.0" y1="116.0" x2="116.0" y2="108.0" style="stroke:rgb(255,0,0);stroke-width:2" />
<line x1="116.0" y1="108.0" x2="124.0" y2="108.0" style="stroke:rgb(255,0,0);stroke-width:2" />
<line x1="124.0" y1="108.0" x2="132.0" y2="108.0" style="stroke:rgb(255,0,0);stroke-width:2" />
<line x1="132.0" y1="108.0" x2="132.0" y2="116.0" style="stroke:rgb(255,0,0);stroke-width:2" />
<line x1="132.0" y1="116.0" x2="124.0" y2="116.0" style="stroke:rgb(255,0,0);stroke-width:2" />
<line x1="124.0" y1="116.0" x2="124.0" y2="124.0" style="stroke:rgb(255,0,0);stroke-width:2" />
<line x1="124.0" y1="124.0" x2="132.0" y2="124.0" style="stroke:rgb(255,0,0);stroke-width:2" />
<line x1="132.0" y1="124.0" x2="132.0" y2="132.0" style="stroke:rgb(255,0,0);stroke-width:2" />
<line x1="132.0" y1="132.0" x2="124.0" y2="132.0" style="stroke:rgb(255,0,0);stroke-width:2" />
<line x1="124.0" y1="132.0" x2="116.0" y2="132.0" style="stroke:rgb(255,0,0);stroke-width:2" />
<line x1="116.0" y1="132.0" x2="116.0" y2="124.0" style="stroke:rgb(255,0,0);stroke-width:2" />
<line x1="116.0" y1="124.0" x2="108.0" y2="124.0" style="stroke:rgb(255,0,0);stroke-width:2" />
<line x1="108.0" y1="124.0" x2="108.0" y2="132.0" style="stroke:rgb(255,0,0);stroke-width:2" />
<line x1="108.0" y1="132.0" x2="100.0" y2="132.0" style="stroke:rgb(255,0,0);stroke-width:2" />
<line x1="100.0" y1="132.0" x2="92.0" y2="132.0" style="stroke:rgb(255,0,0);stroke-width:2" />
<line x1="92.0" y1="132.0" x2="92.0" y2="124.0" style="stroke:rgb(255,0,0);stroke-width:2" />
<line x1="92.0" y1="124.0" x2="100.0" y2="124.0" style="stroke:rgb(255,0,0);stroke-width:2" />
<line x1="100.0" y1="124.0" x2="100.0" y2="116.0" style="stroke:rgb(255,0,0);stroke-width:2" />
<line x1="100.0" y1="116.0" x2="100.0" y2="108.0" style="stroke:rgb(255,0,0);stroke-width:2" />
<line x1="100.0" y1="108.0" x2="92.0" y2="108.0" style="stroke:rgb(255,0,0);stroke-width:2" />
<line x1="92.0" y1="108.0" x2="92.0" y2="116.0" style="stroke:rgb(255,0,0);stroke-width:2" />
<line x1="92.0" y1="116.0" x2="84.0" y2="116.0" style="stroke:rgb(255,0,0);stroke-width:2" />
<line x1="84.0" y1="116.0" x2="84.0" y2="108.0" style="stroke:rgb(255,0,0);stroke-width:2" />
<line x1="84.0" y1="108.0" x2="76.0" y2="108.0" style="stroke:rgb(255,0,0);stroke-width:2" />
<line x1="76.0" y1="108.0" x2="76.0" y2="116.0" style="stroke:rgb(255,0,0);stroke-width:2" />
<line x1="76.0" y1="116.0" x2="76.0" y2="124.0" style="stroke:rgb(255,0,0);stroke-width:2" />
<line x1="76.0" y1="124.0" x2="84.0" y2="124.0" style="stroke:rgb(255,0,0);stroke-width:2" />
<line x1="84.0" y1="124.0" x2="84.0" y2="132.0" style="stroke:rgb(255,0,0);stroke-width:2" />
<line x1="84.0" y1="132.0" x2="76.0" y2="132.0" style="stroke:rgb(255,0,0);stroke-width:2" />
<line x1="76.0" y1="132.0" x2="68.0" y2="132.0" style="stroke:rgb(255,0,0);stroke-width:2" />
<line x1="68.0" y1="132.0" x2="68.0" y2="124.0" style="stroke:rgb(255,0,0);stroke-width:2" />
<line x1="68.0" y1="124.0" x2="60.0" y2="124.0" style="stroke:rgb(255,0,0);stroke-width:2" />
<line x1="60.0" y1="124.0" x2="60.0" y2="132.0" style="stroke:rgb(255,0,0);stroke-width:2" />
<line x1="60.0" y1="132.0" x2="52.0" y2="132.0" style="stroke:rgb(255,0,0);stroke-width:2" />
<line x1="52.0" y1="132.0" x2="44.0" y2="132.0" style="stroke:rgb(255,0,0);stroke-width:2" />
<line x1="44.0" y1="132.0" x2="44.0" y2="124.0" style="stroke:rgb(255,0,0);stroke-width:2" />
<line x1="44.0" y1="124.0" x2="52.0" y2="124.0" style="stroke:rgb(255,0,0);stroke-width:2" />
<line x1="52.0" y1="124.0" x2="52.0" y2="116.0" style="stroke:rgb(255,0,0);stroke-width:2" />
<line x1="52.0" y1="116.0" x2="44.0" y2="116.0" style="stroke:rgb(255,0,0);stroke-width:2" />
<line x1="44.0" y1="116.0" x2="44.0" y2="108.0" style="stroke:rgb(255,0,0);stroke-width:2" />
<line x1="44.0" y1="108.0" x2="52.0" y2="108.0" style="stroke:rgb(255,0,0);stroke-width:2" />
<line x1="52.0" y1="108.0" x2="60.0" y2="108.0" style="stroke:rgb(255,0,0);stroke-width:2" />
<line x1="60.0" y1="108.0" x2="60.0" y2="116.0" style="stroke:rgb(255,0,0);stroke-width:2" />
<line x1="60.0" y1="116.0" x2="68.0" y2="116.0" style="stroke:rgb(255,0,0);stroke-width:2" />
<line x1="68.0" y1="116.0" x2="68.0" y2="108.0" style="stroke:rgb(255,0,0);stroke-width:2" />
<line x1="68.0" y1="108.0" x2="68.0" y2="100.0" style="stroke:rgb(255,0,0);stroke-width:2" />
<line x1="68.0" y1="100.0" x2="60.0" y2="100.0" style="stroke:rgb(255,0,0);stroke-width:2" />
<line x1="60.0" y1="100.0" x2="60.0" y2="92.0" style="stroke:rgb(255,0,0);stroke-width:2" />
<line x1="60.0" y1="92.0" x2="68.0" y2="92.0" style="stroke:rgb(255,0,0);stroke-width:2" />
<line x1="68.0" y1="92.0" x2="68.0" y2="84.0" style="stroke:rgb(255,0,0);stroke-width:2" />
<line x1="68.0" y1="84.0" x2="68.0" y2="76.0" style="stroke:rgb(255,0,0);stroke-width:2" />
<line x1="68.0" y1="76.0" x2="60.0" y2="76.0" style="stroke:rgb(255,0,0);stroke-width:2" />
<line x1="60.0" y1="76.0" x2="60.0" y2="84.0" style="stroke:rgb(255,0,0);stroke-width:2" />
<line x1="60.0" y1="84.0" x2="52.0" y2="84.0" style="stroke:rgb(255,0,0);stroke-width:2" />
<line x1="52.0" y1="84.0" x2="52.0" y2="76.0" style="stroke:rgb(255,0,0);stroke-width:2" />
<line x1="52.0" y1="76.0" x2="44.0" y2="76.0" style="stroke:rgb(255,0,0);stroke-width:2" />
<line x1="44.0" y1="76.0" x2="44.0" y2="84.0" style="stroke:rgb(255,0,0);stroke-width:2" />
<line x1="44.0" y1="84.0" x2="44.0" y2="92.0" style="stroke:rgb(255,0,0);stroke-width:2" />
<line x1="44.0" y1="92.0" x2="52.0" y2="92.0" style="stroke:rgb(255,0,0);stroke-width:2" />
<line x1="52.0" y1="92.0" x2="52.0" y2="100.0" style="stroke:rgb(255,0,0);stroke-width:2" />
<line x1="52.0" y1="100.0" x2="44.0" y2="100.0" style="stroke:rgb(255,0,0);stroke-width:2" />
<line x1="44.0" y1="100.0" x2="36.0" y2="100.0" style="stroke:rgb(255,0,0);stroke-width:2" />
<line x1="36.0" y1="100.0" x2="28.0" y2="100.0" style="stroke:rgb(255,0,0);stroke-width:2" />
<line x1="28.0" y1="100.0" x2="28.0" y2="92.0" style="stroke:rgb(255,0,0);stroke-width:2" />
<line x1="28.0" y1="92.0" x2="36.0" y2="92.0" style="stroke:rgb(255,0,0);stroke-width:2" />
<line x1="36.0" y1="92.0" x2="36.0" y2="84.0" style="stroke:rgb(255,0,0);stroke-width:2" />
<line x1="36.0" y1="84.0" x2="36.0" y2="76.0" style="stroke:rgb(255,0,0);stroke-width:2" />
<line x1="36.0" y1="76.0" x2="28.0" y2="76.0" style="stroke:rgb(255,0,0);stroke-width:2" />
<line x1="28.0" y1="76.0" x2="28.0" y2="84.0" style="stroke:rgb(255,0,0);stroke-width:2" />
<line x1="28.0" y1="84.0" x2="20.0" y2="84.0" style="stroke:rgb(255,0,0);stroke-width:2" />
<line x1="20.0" y1="84.0" x2="20.0" y2="76.0" style="stroke:rgb(255,0,0);stroke-width:2" />
<line x1="20.0" y1="76.0" x2="12.0" y2="76.0" style="stroke:rgb(255,0,0);stroke-width:2" />
<line x1="12.0" y1="76.0" x2="12.0" y2="84.0" style="stroke:rgb(255,0,0);stroke-width:2" />
<line x1="12.0" y1="84.0" x2="12.0" y2="92.0" style="stroke:rgb(255,0,0);stroke-width:2" />
<line x1="12.0" y1="92.0" x2="20.0" y2="92.0" style="stroke:rgb(255,0,0);stroke-width:2" />
<line x1="20.0" y1="92.0" x2="20.0" y2="100.0" style="stroke:rgb(255,0,0);stroke-width:2" />
<line x1="20.0" y1="100.0" x2="12.0" y2="100.0" style="stroke:rgb(255,0,0);stroke-width:2" />
<line x1="12.0" y1="100.0" x2="12.0" y2="108.0" style="stroke:rgb(255,0,0);stroke-width:2" />
<line x1="12.0" y1="108.0" x2="12.0" y2="116.0" style="stroke:rgb(255,0,0);stroke-width:2" />
<line x1="12.0" y1="116.0" x2="20.0" y2="116.0" style="stroke:rgb(255,0,0);stroke-width:2" />
<line x1="20.0" y1="116.0" x2="20.0" y2="108.0" style="stroke:rgb(255,0,0);stroke-width:2" />
<line x1="20.0" y1="108.0" x2="28.0" y2="108.0" style="stroke:rgb(255,0,0);stroke-width:2" />
<line x1="28.0" y1="108.0" x2="36.0" y2="108.0" style="stroke:rgb(255,0,0);stroke-width:2" />
<line x1="36.0" y1="108.0" x2="36.0" y2="116.0" style="stroke:rgb(255,0,0);stroke-width:2" />
<line x1="36.0" y1="116.0" x2="28.0" y2="116.0" style="stroke:rgb(255,0,0);stroke-width:2" />
<line x1="28.0" y1="116.0" x2="28.0" y2="124.0" style="stroke:rgb(255,0,0);stroke-width:2" />
<line x1="28.0" y1="124.0" x2="36.0" y2="124.0" style="stroke:rgb(255,0,0);stroke-width:2" />
<line x1="36.0" y1="124.0" x2="36.0" y2="132.0" style="stroke:rgb(255,0,0);stroke-width:2" />
<line x1="36.0" y1="132.0" x2="28.0" y2="132.0" style="stroke:rgb(255,0,0);stroke-width:2" />
<line x1="28.0" y1="132.0" x2="20.0" y2="132.0" style="stroke:rgb(255,0,0);stroke-width:2" />
<line x1="20.0" y1="132.0" x2="20.0" y2="124.0" style="stroke:rgb(255,0,0);stroke-width:2" />
<line x1="20.0" y1="124.0" x2="12.0" y2="124.0" style="stroke:rgb(255,0,0);stroke-width:2" />
<line x1="12.0" y1="124.0" x2="12.0" y2="132.0" style="stroke:rgb(255,0,0);stroke-width:2" />
</svg>