<?xml version="1.0" encoding="UTF-8" ?>
<svg height="144" width="144" xmlns="http://www.w3.org/2000/svg" version="1.1">
<line x1="16.0" y1="16.0" x2="32.0" y2="16.0" style="stroke:rgb(255,0,0);stroke-width:2" />
<line x1="32.0" y1="16.0" x2="32.0" y2="32.0" style="stroke:rgb(255,0,0);stroke-width:2" />
<line x1="32.0" y1="32.0" x2="16.0" y2="32.0" style="stroke:rgb(255,0,0);stroke-width:2" />
<line x1="16.0" y1="32.0" x2="16.0" y2="48.0" style="stroke:rgb(255,0,0);stroke-width:2" />
<line x1="16.0" y1="48.0" x2="16.0" y2="64.0" style="stroke:rgb(255,0,0);stroke-width:2" />
<line x1="16.0" y1="64.0" x2="32.0" y2="64.0" style="stroke:rgb(255,0,0);stroke-width:2" />
<line x1="32.0" y1="64.0" x2="32.0" y2="48.0" style="stroke:rgb(255,0,0);stroke-width:2" />
<line x1="32.0" y1="48.0" x2="48.0" y2="48.0" style="stroke:rgb(255,0,0);stroke-width:2" />
<line x1="48.0" y1="48.0" x2="48.0" y2="64.0" style="stroke:rgb(255,0,0);stroke-width:2" />
<line x1="48.0" y1="64.0" x2="64.0" y2="64.0" style="stroke:rgb(255,0,0);stroke-width:2" />
<line x1="64.0" y1="64.0" x2="64.0" y2="48.0" style="stroke:rgb(255,0,0);stroke-width:2" />
<line x1="64.0" y1="48.0" x2="64.0" y2="32.0" style="stroke:rgb(255,0,0);stroke-width:2" />
<line x1="64.0" y1="32.0" x2="48.0" y2="32.0" style="stroke:rgb(255,0,0);stroke-width:2" />
<line x1="48.0" y1="32.0" x2="48.0" y2="16.0" style="stroke:rgb(255,0,0);stroke-width:2" />
<line x1="48.0" y1="16.0" x2="64.0" y2="16.0" style="stroke:rgb(255,0,0);stroke-width:2" />
<line x1="64.0" y1="16.0" x2="80.0" y2="16.0" style="stroke:rgb(255,0,0);stroke-width:2" />
<line x1="80.0" y1="16.0" x2="80.0" y2="32.0" style="stroke:rgb(255,0,0);stroke-width:2" />
<line x1="80.0" y1="32.0" x2="96.0" y2="32.0" style="stroke:rgb(255,0,0);stroke-width:2" />
<line x1="96.0" y1="32.0" x2="96.0" y2="16.0" style="stroke:rgb(255,0,0);stroke-width:2" />
<line x1="96.0" y1="16.0" x2="112.0" y2="16.0" style="stroke:rgb(255,0,0);stroke-width:2" />
<line x1="112.0" y1="16.0" x2="128.0" y2="16.0" style="stroke:rgb(255,0,0);stroke-width:2" />
<line x1="128.0" y1="16.0" x2="128.0" y2="32.0" style="stroke:rgb(255,0,0);stroke-width:2" />
<line x1="128.0" y1="32.0" x2="112.0" y2="32.0" style="stroke:rgb(255,0,0);stroke-width:2" />
<line x1="112.0" y1="32.0" x2="112.0" y2="48.0" style="stroke:rgb(255,0,0);stroke-width:2" />
<line x1="112.0" y1="48.0" x2="128.0" y2="48.0" style="stroke:rgb(255,0,0);stroke-width:2" />
<line x1="128.0" y1="48.0" x2="128.0" y2="64.0" style="stroke:rgb(255,0,0);stroke-width:2" />
<line x1="128.0" y1="64.0" x2="112.0" y2="64.0" style="stroke:rgb(255,0,0);stroke-width:2" />
<line x1="112.0" y1="64.0" x2="96.0" y2="64.0" style="stroke:rgb(255,0,0);stroke-width:2" />
<line x1="96.0" y1="64.0" x2="96.0" y2="48.0" style="stroke:rgb(255,0,0);stroke-width:2" />
<line x1="96.0" y1="48.0" x2="80.0" y2="48.0" style="stroke:rgb(255,0,0);stroke-width:2" />
<line x1="80.0" y1="48.0" x2="80.0" y2="64.0" style="stroke:rgb(255,0,0);stroke-width:2" />
<line x1="80.0" y1="64.0" x2="80.0" y2="80.0" style="stroke:rgb(255,0,0);stroke-width:2" />
<line x1="80.0" y1="80.0" x2="80.0" y2="96.0" style="stroke:rgb(255,0,0);stroke-width:2" />
<line x1="80.0" y1="96.0" x2="96.0" y2="96.0" style="stroke:rgb(255,0,0);stroke-width:2" />
<line x1="96.0" y1="96.0" x2="96.0" y2="80.0" style="stroke:rgb(255,0,0);stroke-width:2" />
<line x1="96.0" y1="80.0" x2="112.0" y2="80.0" style="stroke:rgb(255,0,0);stroke-width:2" />
<line x1="112.0" y1="80.0" x2="128.0" y2="80.0" style="stroke:rgb(255,0,0);stroke-width:2" />
<line x1="128.0" y1="80.0" x2="128.0" y2="96.0" style="stroke:rgb(255,0,0);stroke-width:2" />
<line x1="128.0" y1="96.0" x2="112.0" y2="96.0" style="stroke:rgb(255,0,0);stroke-width:2" />
<line x1="112.0" y1="96.0" x2="112.0" y2="112.0" style="stroke:rgb(255,0,0);stroke-width:2" />
<line x1="112.0" y1="112.0" x2="128.0" y2="112.0" style="stroke:rgb(255,0,0);stroke-width:2" />
<line x1="128.0" y1="112.0" x2="128.0" y2="128.0" style="stroke:rgb(255,0,0);stroke-width:2" />
<line x1="128.0" y1="128.0" x2="112.0" y2="128.0" style="stroke:rgb(255,0,0);stroke-width:2" />
<line x1="112.0" y1="128.0" x2="96.0" y2="128.0" style="stroke:rgb(255,0,0);stroke-width:2" />
<line x1="96.0" y1="128.0" x2="96.0" y2="112.0" style="stroke:rgb(255,0,0);stroke-width:2" />
<line x1="96.0" y1="112.0" x2="80.0" y2="112.0" style="stroke:rgb(255,0,0);stroke-width:2" />
<line x1="80.0" y1="112.0" x2="80.0" y2="128.0" style="stroke:rgb(255,0,0);stroke-width:2" />
<line x1="80.0" y1="128.0" x2="64.0" y2="128.0" style="stroke:rgb(255,0,0);stroke-width:2" />
<line x1="64.0" y1="128.0" x2="48.0" y2="128.0" style="stroke:rgb(255,0,0);stroke-width:2" />
<line x1="48.0" y1="128.0" x2="48.0" y2="112.0" style="stroke:rgb(255,0,0);stroke-width:2" />
<line x1="48.0" y1="112.0" x2="64.0" y2="112.0" style="stroke:rgb(255,0,0);stroke-width:2" />
<line x1="64.0" y1="112.0" x2="64.0" y2="96.0" style="stroke:rgb(255,0,0);stroke-width:2" />
<line x1="64.0" y1="96.0" x2="64.0" y2="80.0" style="stroke:rgb(255,0,0);stroke-width:2" />
<line x1="64.0" y1="80.0" x2="48.0" y2="80.0" style="stroke:rgb(255,0,0);stroke-width:2" />
<line x1="48.0" y1="80.0" x2="48.0" y2="96.0" style="stroke:rgb(255,0,0);stroke-width:2" />
<line x1="48.0" y1="96.0" x2="32.0" y2="96.0" style="stroke:rgb(255,0,0);stroke-width:2" />
<line x1="32.0" y1="96.0" x2="32.0" y2="80.0" style="stroke:rgb(255,0,0);stroke-width:2" />
<line x1="32.0" y1="80.0" x2="16.0" y2="80.0" style="stroke:rgb(255,0,0);stroke-width:2" />
<line x1="16.0" y1="80.0" x2="16.0" y2="96.0" style="stroke:rgb(255,0,0);stroke-width:2" />
<line x1="16.0" y1="96.0" x2="16.0" y2="112.0" style="stroke:rgb(255,0,0);stroke-width:2" />
<line x1="16.0" y1="112.0" x2="32.0" y2="112.0" style="stroke:rgb(255,0,0);stroke-width:2" />
<line x1="32.0" y1="112.0" x2="32.0" y2="128.0" style="stroke:rgb(255,0,0);stroke-width:2" />
<line x1="32.0" y1="128.0" x2="16.0" y2="128.0" style="stroke:rgb(255,0,0);stroke-width:2" />
</svg>