<?xml version="1.0" encoding="UTF-8" ?>
<svg height="272" width="272" xmlns="http://www.w3.org/2000/svg" version="1.1">
<line x1="8.0" y1="8.0" x2="40.0" y2="8.0" style="stroke:rgb(255,0,0);stroke-width:2" />
<line x1="40.0" y1="8.0" x2="40.0" y2="40.0" style="stroke:rgb(255,0,0);stroke-width:2" />
<line x1="40.0" y1="40.0" x2="8.0" y2="40.0" style="stroke:rgb(255,0,0);stroke-width:2" />
<line x1="8.0" y1="40.0" x2="8.0" y2="72.0" style="stroke:rgb(255,0,0);stroke-width:2" />
<line x1="8.0" y1="72.0" x2="8.0" y2="104.0" style="stroke:rgb(255,0,0);stroke-width:2" />
<line x1="8.0" y1="104.0" x2="40.0" y2="104.0" style="stroke:rgb(255,0,0);stroke-width:2" />
<line x1="40.0" y1="104.0" x2="40.0" y2="72.0" style="stroke:rgb(255,0,0);stroke-width:2" />
<line x1="40.0" y1="72.0" x2="72.0" y2="72.0" style="stroke:rgb(255,0,0);stroke-width:2" />
<line x1="72.0" y1="72.0" x2="72.0" y2="104.0" style="stroke:rgb(255,0,0);stroke-width:2" />
<line x1="72.0" y1="104.0" x2="104.0" y2="104.0" style="stroke:rgb(255,0,0);stroke-width:2" />
<line x1="104.0" y1="104.0" x2="104.0" y2="72.0" style="stroke:rgb(255,0,0);stroke-width:2" />
<line x1="104.0" y1="72.0" x2="104.0" y2="40.0" style="stroke:rgb(255,0,0);stroke-width:2" />
<line x1="104.0" y1="40.0" x2="72.0" y2="40.0" style="stroke:rgb(255,0,0);stroke-width:2" />
<line x1="72.0" y1="40.0" x2="72.0" y2="8.0" style="stroke:rgb(255,0,0);stroke-width:2" />
<line x1="72.0" y1="8.0" x2="104.0" y2="8.0" style="stroke:rgb(255,0,0);stroke-width:2" />
<line x1="104.0" y1="8.0" x2="136.0" y2="8.0" style="stroke:rgb(255,0,0);stroke-width:2" />
<line x1="136.0" y1="8.0" x2="136.0" y2="40.0" style="stroke:rgb(255,0,0);stroke-width:2" />
<line x1="136.0" y1="40.0" x2="168.0" y2="40.0" style="stroke:rgb(255,0,0);stroke-width:2" />
<line x1="168.0" y1="40.0" x2="168.0" y2="8.0" style="stroke:rgb(255,0,0);stroke-width:2" />
<line x1="168.0" y1="8.0" x2="200.0" y2="8.0" style="stroke:rgb(255,0,0);stroke-width:2" />
<line x1="200.0" y1="8.0" x2="232.0" y2="8.0" style="stroke:rgb(255,0,0);stroke-width:2" />
<line x1="232.0" y1="8.0" x2="232.0" y2="40.0" style="stroke:rgb(255,0,0);stroke-width:2" />
<line x1="232.0" y1="40.0" x2="200.0" y2="40.0" style="stroke:rgb(255,0,0);stroke-width:2" />
<line x1="200.0" y1="40.0" x2="200.0" y2="72.0" style="stroke:rgb(255,0,0);stroke-width:2" />
<line x1="200.0" y1="72.0" x2="232.0" y2="72.0" style="stroke:rgb(255,0,0);stroke-width:2" />
<line x1="232.0" y1="72.0" x2="232.0" y2="104.0" style="stroke:rgb(255,0,0);stroke-width:2" />
<line x1="232.0" y1="104.0" x2="200.0" y2="104.0" style="stroke:rgb(255,0,0);stroke-width:2" />
<line x1="200.0" y1="104.0" x2="168.0" y2="104.0" style="stroke:rgb(255,0,0);stroke-width:2" />
<line x1="168.0" y1="104.0" x2="168.0" y2="72.0" style="stroke:rgb(255,0,0);stroke-width:2" />
<line x1="168.0" y1="72.0" x2="136.0" y2="72.0" style="stroke:rgb(255,0,0);stroke-width:2" />
<line x1="136.0" y1="72.0" x2="136.0" y2="104.0" style="stroke:rgb(255,0,0);stroke-width:2" />
<line x1="136.0" y1="104.0" x2="136.0" y2="136.0" style="stroke:rgb(255,0,0);stroke-width:2" />
<line x1="136.0" y1="136.0" x2="136.0" y2="168.0" style="stroke:rgb(255,0,0);stroke-width:2" />
<line x1="136.0" y1="168.0" x2="168.0" y2="168.0" style="stroke:rgb(255,0,0);stroke-width:2" />
<line x1="168.0" y1="168.0" x2="168.0" y2="136.0" style="stroke:rgb(255,0,0);stroke-width:2" />
<line x1="168.0" y1="136.0" x2="200.0" y2="136.0" style="stroke:rgb(255,0,0);stroke-width:2" />
<line x1="200.0" y1="136.0" x2="232.0" y2="136.0" style="stroke:rgb(255,0,0);stroke-width:2" />
<line x1="232.0" y1="136.0" x2="232.0" y2="168.0" style="stroke:rgb(255,0,0);stroke-width:2" />
<line x1="232.0" y1="168.0" x2="200.0" y2="168.0" style="stroke:rgb(255,0,0);stroke-width:2" />
<line x1="200.0" y1="168.0" x2="200.0" y2="200.0" style="stroke:rgb(255,0,0);stroke-width:2" />
<line x1="200.0" y1="200.0" x2="232.0" y2="200.0" style="stroke:rgb(255,0,0);stroke-width:2" />
<line x1="232.0" y1="200.0" x2="232.0" y2="232.0" style="stroke:rgb(255,0,0);stroke-width:2" />
<line x1="232.0" y1="232.0" x2="200.0" y2="232.0" style="stroke:rgb(255,0,0);stroke-width:2" />
<line x1="200.0" y1="232.0" x2="168.0" y2="232.0" style="stroke:rgb(255,0,0);stroke-width:2" />
<line x1="168.0" y1="232.0" x2="168.0" y2="200.0" style="stroke:rgb(255,0,0);stroke-width:2" />
<line x1="168.0" y1="200.0" x2="136.0" y2="200.0" style="stroke:rgb(255,0,0);stroke-width:2" />
<line x1="136.0" y1="200.0" x2="136.0" y2="232.0" style="stroke:rgb(255,0,0);stroke-width:2" />
<line x1="136.0" y1="232.0" x2="104.0" y2="232.0" style="stroke:rgb(255,0,0);stroke-width:2" />
<line x1="104.0" y1="232.0" x2="72.0" y2="232.0" style="stroke:rgb(255,0,0);stroke-width:2" />
<line x1="72.0" y1="232.0" x2="72.0" y2="200.0" style="stroke:rgb(255,0,0);stroke-width:2" />
<line x1="72.0" y1="200.0" x2="104.0" y2="200.0" style="stroke:rgb(255,0,0);stroke-width:2" />
<line x1="104.0" y1="200.0" x2="104.0" y2="168.0" style="stroke:rgb(255,0,0);stroke-width:2" />
<line x1="104.0" y1="168.0" x2="104.0" y2="136.0" style="stroke:rgb(255,0,0);stroke-width:2" />
<line x1="104.0" y1="136.0" x2="72.0" y2="136.0" style="stroke:rgb(255,0,0);stroke-width:2" />
<line x1="72.0" y1="136.0" x2="72.0" y2="168.0" style="stroke:rgb(255,0,0);stroke-width:2" />
<line x1="72.0" y1="168.0" x2="40.0" y2="168.0" style="stroke:rgb(255,0,0);stroke-width:2" />
<line x1="40.0" y1="168.0" x2="40.0" y2="136.0" style="stroke:rgb(255,0,0);stroke-width:2" />
<line x1="40.0" y1="136.0" x2="8.0" y2="136.0" style="stroke:rgb(255,0,0);stroke-width:2" />
<line x1="8.0" y1="136.0" x2="8.0" y2="168.0" style="stroke:rgb(255,0,0);stroke-width:2" />
<line x1="8.0" y1="168.0" x2="8.0" y2="200.0" style="stroke:rgb(255,0,0);stroke-width:2" />
<line x1="8.0" y1="200.0" x2="40.0" y2="200.0" style="stroke:rgb(255,0,0);stroke-width:2" />
<line x1="40.0" y1="200.0" x2="40.0" y2="232.0" style="stroke:rgb(255,0,0);stroke-width:2" />
<line x1="40.0" y1="232.0" x2="8.0" y2="232.0" style="stroke:rgb(255,0,0);stroke-width:2" />
</svg>