<?xml version="1.0" encoding="UTF-8" ?>
<svg height="144" width="144" xmlns="http://www.w3.org/2000/svg" version="1.1">
<line x1="24.0" y1="24.0" x2="24.0" y2="56.0" style="stroke:rgb(255,0,0);stroke-width:2" />
<line x1="24.0" y1="56.0" x2="56.0" y2="56.0" style="stroke:rgb(255,0,0);stroke-width:2" />
<line x1="56.0" y1="56.0" x2="56.0" y2="24.0" style="stroke:rgb(255,0,0);stroke-width:2" />
<line x1="56.0" y1="24.0" x2="88.0" y2="24.0" style="stroke:rgb(255,0,0);stroke-width:2" />
<line x1="88.0" y1="24.0" x2="120.0" y2="24.0" style="stroke:rgb(255,0,0);stroke-width:2" />
<line x1="120.0" y1="24.0" x2="120.0" y2="56.0" style="stroke:rgb(255,0,0);stroke-width:2" />
<line x1="120.0" y1="56.0" x2="88.0" y2="56.0" style="stroke:rgb(255,0,0);stroke-width:2" />
<line x1="88.0" y1="56.0" x2="88.0" y2="88.0" style="stroke:rgb(255,0,0);stroke-width:2" />
<line x1="88.0" y1="88.0" x2="120.0" y2="88.0" style="stroke:rgb(255,0,0);stroke-width:2" />
<line x1="120.0" y1="88.0" x2="120.0" y2="120.0" style="stroke:rgb(255,0,0);stroke-width:2" />
<line x1="120.0" y1="120.0" x2="88.0" y2="120.0" style="stroke:rgb(255,0,0);stroke-width:2" />
<line x1="88.0" y1="120.0" x2="56.0" y2="120.0" style="stroke:rgb(255,0,0);stroke-width:2" />
<line x1="56.0" y1="120.0" x2="56.0" y2="88.0" style="stroke:rgb(255,0,0);stroke-width:2" />
<line x1="56.0" y1="88.0" x2="24.0" y2="88.0" style="stroke:rgb(255,0,0);stroke-width:2" />
<line x1="24.0" y1="88.0" x2="24.0" y2="120.0" style="stroke:rgb(255,0,0);stroke-width:2" />
</svg>